<svg xmlns="http://www.w3.org/2000/svg" viewBox="0 0 100 100"><path id="bot" d="M50 81c-17.6 0-32-13.9-32-31v-.8l-8.6-9.8c-.8-.9-1-2.1-.6-3.2s1.3-1.9 2.4-2.1l13.1-2.6.2-.3C30.7 23.4 40 19 50 19s19.3 4.4 25.4 12.2l.2.3L88.8 34c1.1.2 2 1 2.4 2.1.4 1.1.1 2.3-.6 3.2L82 49.2v.8c0 17.1-14.4 31-32 31zm12.3-28c.7 0 1.3.2 2 .3.6.1 1.1.3 1.7.3 2.4 0 2.4-2.7 2.4-3.6 0-4.9-2.6-8.8-6-8.8s-6 3.9-6 8.8c0 .9 0 3.6 2.4 3.6.5 0 1.1-.1 1.7-.3.4-.1 1.1-.3 1.8-.3zm-24.5 0c.7 0 1.3.2 2 .3.6.1 1.1.3 1.7.3 2.4 0 2.4-2.7 2.4-3.6 0-4.9-2.6-8.8-6-8.8s-6 3.9-6 8.8c0 .9 0 3.6 2.4 3.6.5 0 1.1-.1 1.7-.3.4-.1 1.1-.3 1.8-.3z" fill="#444"/></svg>
